<svg style="fill:#18373A;" id="Layer_1" data-name="Layer 1" xmlns="http://www.w3.org/2000/svg" viewBox="0 0 446.37 396.75"><path d="M222.86,37.73c-.41.45-.58.58-1.1,1.23-2.38,3-5.71,8-9.53,14.12-7.63,12.24-17.32,29.21-26.91,46.34C176.55,115.1,168,130.58,161,143.14c20-20.2,40-42.62,61.81-62.59,6.25-14.94,8.17-24.43,7.87-30.06-.31-6.24-3.81-9.66-7.81-12.76ZM271.81,57c-37.25,22.36-68.14,58.45-100.08,90.86,12.34-2.58,25.13-4.42,39.21-6.31,9.42-6.64,30.41-23.67,45.55-41.85,7.77-9.32,13.92-19,16.36-27C274.84,66.11,274.81,61.33,271.81,57Zm-101.43.89c-1.43,4.39-3.49,12-5.71,22.3-4,19-10.26,42.38-13.32,59.48,6.48-11.64,17.25-32.22,25-46q5-9,10.13-17.95A21.84,21.84,0,0,0,170.38,57.84Zm49.08,93.87c-30.52,4.06-53.55,7.2-78.43,16.56C106,203.16,71,242.68,44.74,283c15.1,23.09,33.49,29.47,54,27.72,24.88-4.43,48.1-15.44,66.79-27.29l53.84-6.71,40.19-24.54a21.72,21.72,0,0,0-9.89-8.9c-7.45-3.25-19-3.83-36.42,5.9-11.67,6.54-22.11,6.83-29.5,1.72s-10.8-14.4-11.29-24.06a53.93,53.93,0,0,1,7-29.13c5.18-9,13.44-16.53,24.43-19.23l.16,0,.16,0c14-2.46,25.85,8.63,34.4,15.34,5.89,5.41.69,19.45,3.33,26.79,1,2.62,2.68,4.88,6.88,7.12,3.41,1.83,8.67,3.43,16,4.46L268,187.52c-11.3-13.53-31.44-27.73-48.5-35.81Zm95.81,282.77a16.47,16.47,0,0,0,1.09-1.25c2.35-3.05,5.64-8.05,9.4-14.2,7.52-12.32,17.05-29.37,26.48-46.59,8.63-15.76,17-31.31,23.92-43.95-19.86,20.39-39.58,43-61.22,63.16-6.12,15-7.95,24.52-7.6,30.14.37,6.24,3.9,9.62,7.93,12.69Zm-49.13-18.77c37.05-22.7,67.6-59.08,99.24-91.79-12.32,2.7-25.09,4.66-39.15,6.69-9.36,6.72-30.19,23.94-45.17,42.26C273.38,382.27,267.33,392,265,400,263,406.58,263.11,411.36,266.14,415.71Zm101.43-1.83c1.38-4.4,3.38-12,5.5-22.35,3.78-19,9.86-42.48,12.77-59.6-6.38,11.7-17,32.38-24.53,46.22q-4.95,9-10,18.05A21.86,21.86,0,0,0,367.57,413.88Zm-50-93.41c30.49-4.35,53.49-7.7,78.28-17.28,34.75-35.22,69.3-75.07,95.22-115.64-15.31-22.94-33.77-29.15-54.28-27.21-24.84,4.66-48,15.89-66.54,27.9l-53.78,7.21-40,24.92a21.69,21.69,0,0,0,10,8.8c7.48,3.18,19.08,3.66,36.37-6.24,11.59-6.64,22-7,29.48-2s10.93,14.31,11.51,24a53.82,53.82,0,0,1-6.74,29.19c-5.09,9-13.28,16.66-24.25,19.45l-.15,0-.17,0c-13.94,2.59-25.93-8.39-34.54-15-5.94-5.35-.87-19.44-3.57-26.76-1.05-2.61-2.73-4.85-7-7.06-3.43-1.79-8.7-3.34-16.07-4.3l-2.67,44.64c11.43,13.42,31.7,27.44,48.83,35.36Z" transform="translate(-44.74 -37.73)"/></svg>